  <svg xmlns="http://www.w3.org/2000/svg"
    width="60"
    height="60"
    viewBox="0 0 1000 1000" >
  <path id="my" fill="white" d="M103.17,135.33c22-16.3,46.47-34.05,67.81-46.85l-4.72,10.3c19.81-16.5,43.75-30.45,70.87-42.15l-5.45,11.73,28.38-12.42c11.56-1.42,22,.21,32,3-33.88,11.23-66.68,23.91-97.7,40.2l-12.39,16.15q-39.91,25-78.39,52.16L90.88,186.34c-18.8,16.77-38.8,35.43-56.07,55-2.27,5-4.36,9.58-6.07,14.35a537.62,537.62,0,0,1,44.68-44l-2.54,8.67a803.71,803.71,0,0,1,75.68-56.68L143,176.58c68-49,156.81-80.57,246-98.11,15.53,3.28,29.07,7.81,44.52,13.52-106,18-206.88,52-298.73,112.58l-5.08,13.72c-27.94,17.38-53.53,39.1-79.31,63L46.82,292.1A430.93,430.93,0,0,0,4.11,344.77c-.73,6-1.55,11.63-2.28,17.6C13.59,347,25.63,330.72,39.74,317l.44,8.58a523.47,523.47,0,0,1,79.67-70.94l-2.63,14.72C244,196.08,382.36,149.88,530.57,126c14.63,6,28.34,12.86,40.06,21.92C409,179.28,252.92,224.08,109.2,304.22l-3.47,19.5c-28.2,17.48-49.08,35.22-71.33,56.14L34,387.8C21.9,398.43,10.5,412.14,0,427.66A162.07,162.07,0,0,0,1.23,445a439.79,439.79,0,0,1,35.92-39.57l.53,7.95c18-17.4,39.34-32.89,61.65-47.22l1.79,13.55c162.69-86.42,366.4-147,552.85-180,14.52,6.63,26.89,15.75,38.34,25.8-202.71,36.51-398,94.34-583.38,184.06l2.86,14.09a394,394,0,0,0-68.68,37.82l1.61,7.58A191.14,191.14,0,0,0,9.9,498.38c1.08,5.06,2.34,9.76,3.68,14.73q17.48-16,36.27-30.38l4,12.2a314.81,314.81,0,0,1,66.44-37.36l7.72,25.1c215-81.19,435-152.34,659.11-215.18-74.7-205.38-300.9-316-509.35-246.92A404.25,404.25,0,0,0,103.17,135.33ZM352.08,826.81c27.32-1.45,57.51-3.43,82.1-7.2L424,814.7c25.78.07,53.12-4.47,81.46-12.77l-11.68-5.57,29.77-8.55c9.82-6.28,16.84-14.22,22.73-22.66-33.25,13-66.59,24.14-100.87,31.37L425.54,792q-46.67,6.24-93.63,9.86l-21.85-6.5c-25.17-.9-52.47-2.52-78.26-6.56-4.91-2.39-9.46-4.59-13.83-7.18A540.3,540.3,0,0,0,280.45,787L273,782a807,807,0,0,0,94.43-4.65l-11-7.68c83.63-5.64,172.15-38,252-81.46,9.87-12.44,17.4-24.57,25.66-38.81C541.07,703.12,441.64,741.3,332.29,753.3L319.63,746c-32.7,4.18-66.17,4-101.26,2.11l-9.71-6a429,429,0,0,1-66.48-13.29c-4.36-4.12-8.62-8-13-12.1,18.85,4.3,38.53,9.19,58.14,10.73l-5.14-6.88a521.8,521.8,0,0,0,106.61,3.77l-11.42-9.64c144.35-24.43,280.39-77.2,409.72-153.4,7.46-13.94,13.61-28,16.86-42.44-144.48,79-293.2,144.11-455,174.12l-15.11-12.8c-32.87,4.55-60.27,4.2-90.75,2.31l-5.36-5.89c-16.12-.45-33.64-3.74-51.63-9A165.88,165.88,0,0,1,76,653.44,439,439,0,0,0,128.92,661l-4.66-6.46c25,1.91,51.27.23,77.6-3L194.58,640C375,602.71,570.52,519.39,735.09,425.77c6.95-14.36,10.65-29.29,13-44.33C568.77,482.68,381.51,562.78,181.52,612l-6.78-12.68a394.13,394.13,0,0,1-77,14.71l-3.6-6.88a188.73,188.73,0,0,1-45.5-.33q-3.46-6.75-6.56-13.69,23.63,1.17,47.3.25l-4.67-12a315.78,315.78,0,0,0,75-13.62L149.61,543.5C366.93,468.84,581.78,383.18,794.4,288.6c73.54,205.79-30,435.31-234.62,515.12a404.13,404.13,0,0,1-207.7,23.09Z"/>
</svg>