<svg xmlns="http://www.w3.org/2000/svg" viewBox="0 0 828 828"><defs><style>.cls-1{fill-rule:evenodd;}</style></defs><g id="Шар_2" data-name="Шар 2"><g id="Шар_1-2" data-name="Шар 1"><path class="cls-1" d="M54.31,620.12C45.7,593.62,36.5,564.19,31,539.42l8.33,7.87c-9.48-24.47-15.23-52.14-17.82-82.15l9.46,9-2.88-31.47c2.28-11.66,7.15-21.28,12.89-30,0,36.42,1.75,72.25,7.5,107.51L60,537.39Q71.21,584.06,85,630l14.06,18.34c10,23.59,21.52,48.94,34.73,71.94,4,3.79,7.75,7.29,11.76,10.48a551.73,551.73,0,0,1-27.84-57.38l7.46,5.24A830.08,830.08,0,0,1,95,587.18l11.18,7.57C80.91,513.19,78.86,417,90.28,325c8-14,16.62-25.65,26.94-38.78-16.29,108.39-15.66,217.06,13.07,325.43L141.77,621c7.75,32.63,20.39,64.38,35,97l9.17,7a441.45,441.45,0,0,0,36.73,58.25c5.45,2.61,10.6,5.23,16.06,7.85-10.91-16.31-22.66-33.2-31.28-51.26l8.32,2.32a537.84,537.84,0,0,1-42.49-99.91l13.2,7.27c-29.89-146.24-30.27-295.11-6.25-446.3,10.31-12.26,21.2-23.33,33.53-31.78-21.13,166.65-27.65,332.13,3.41,497L234.69,678c7.77,32.92,18.1,58.84,31,87.09l7.45,2.91c6.31,15.15,15.78,30.59,27.26,45.73a162.18,162.18,0,0,0,16.92,4.37A452.15,452.15,0,0,1,291,770.66l7.75,2c-10.91-23-18.95-48.65-25.57-74.86l13.48,2.62c-31.06-185.28-24.58-402,2.85-593.17,10.89-11.94,23.49-21,36.68-28.86-29.14,208-35.62,415.73-8.57,624.05l14.34,1.74a406.84,406.84,0,0,0,14.38,78.65l7.73.87A197.09,197.09,0,0,0,371,826.84c5.16.58,10.05.87,15.2,1.16q-9.71-22-17.51-44.86h12.91a325.51,325.51,0,0,1-14.67-76.33l26.37.57c-9.59-234.23-8-470.2,2.79-707.37C176.71,6.51-.12,190.13,0,414.18A417.44,417.44,0,0,0,54.31,620.12ZM774,619.74c8.59-26.51,17.73-55.94,23.16-80.72l-8.3,7.88c9.44-24.49,15.15-52.16,17.71-82.17l-9.46,9,2.84-31.47c-2.3-11.65-7.18-21.27-12.93-30,0,36.42-1.66,72.25-7.38,107.52L768.16,537Q757,583.7,743.28,629.69l-14,18.36c-10,23.6-21.47,49-34.64,72-4,3.79-7.74,7.3-11.75,10.49a555.74,555.74,0,0,0,27.77-57.41l-7.45,5.25a834.31,834.31,0,0,0,30-91.51L722,594.44c25.18-81.6,27.11-177.74,15.56-269.78-8-14-16.65-25.63-27-38.75C727.06,394.28,726.57,503,698,611.35l-11.47,9.33c-8,32.63-20.31,64.4-34.9,97l-9.17,7A437.88,437.88,0,0,1,605.79,783c-5.44,2.63-10.6,5.25-16,7.87,10.89-16.32,22.63-33.22,31.21-51.29l-8.3,2.33A538.25,538.25,0,0,0,655,642l-13.19,7.29C671.52,503,671.69,354.1,647.48,202.93c-10.32-12.24-21.23-23.3-33.57-31.73,21.34,166.62,28.07,332.1-2.77,497l-17.48,9.63c-7.71,32.93-18,58.86-30.89,87.13l-7.46,2.92c-6.29,15.15-15.74,30.6-27.19,45.76a162.27,162.27,0,0,1-16.92,4.39,446.84,446.84,0,0,0,26.35-47.51l-7.73,2.05c10.87-23,18.88-48.67,25.45-74.89l-13.47,2.63c30.82-185.31,24.06-402.05-3.62-593.16-10.89-11.93-23.52-21-36.72-28.82,29.41,208,36.16,415.69,9.38,624l-14.34,1.76a407.5,407.5,0,0,1-14.27,78.66l-7.75.88a194.89,194.89,0,0,1-16.88,43.13q-7.59.81-15.2,1.18,9.69-22,17.45-44.88H447a326.72,326.72,0,0,0,14.56-76.35l-26.38.6c9.29-234.24,7.37-470.21-3.7-707.37C650.78,6.26,827.83,189.68,828,413.73a417.33,417.33,0,0,1-54,206Z"/></g></g></svg>